HIERARCHY
ROOT joint_Root
{
	OFFSET 0.0 0.0 0.0
	CHANNELS 6 Xposition Yposition Zposition Zrotation Xrotation Yrotation 
	JOINT Hips
	{
		OFFSET 4.5925 91.4895 -427.239
		CHANNELS 6 Xposition Yposition Zposition Zrotation Xrotation Yrotation 
		JOINT Spine
		{
			OFFSET 15.7357 0.0 0.0
			CHANNELS 6 Xposition Yposition Zposition Zrotation Xrotation Yrotation 
			JOINT Chest
			{
				OFFSET 8.98455 -0.406207 0.0
				CHANNELS 6 Xposition Yposition Zposition Zrotation Xrotation Yrotation 
				JOINT Neck
				{
					OFFSET 16.3773 0.0 0.0
					CHANNELS 6 Xposition Yposition Zposition Zrotation Xrotation Yrotation 
					JOINT Head
					{
						OFFSET 6.45672 0.0 0.0
						CHANNELS 6 Xposition Yposition Zposition Zrotation Xrotation Yrotation 
						End Site
						{
							OFFSET 0.0 0.0 0.0
						}
					}
				}
				JOINT Shoulder_L
				{
					OFFSET 12.9942 -0.242716 4.98039
					CHANNELS 6 Xposition Yposition Zposition Zrotation Xrotation Yrotation 
					JOINT UpperArm_L
					{
						OFFSET 5.34809 0.0 0.0
						CHANNELS 6 Xposition Yposition Zposition Zrotation Xrotation Yrotation 
						JOINT LowerArm_L
						{
							OFFSET 24.3286 1.87007e-05 0.0
							CHANNELS 6 Xposition Yposition Zposition Zrotation Xrotation Yrotation 
							JOINT Hand_L
							{
								OFFSET 22.2916 0.0 0.0
								CHANNELS 6 Xposition Yposition Zposition Zrotation Xrotation Yrotation 
								End Site
								{
									OFFSET 0.0 0.0 0.0
								}
							}
						}
					}
				}
				JOINT Shoulder_R
				{
					OFFSET 12.9945 -0.242716 -4.98039
					CHANNELS 6 Xposition Yposition Zposition Zrotation Xrotation Yrotation 
					JOINT UpperArm_R
					{
						OFFSET -5.34813 0.0 0.0
						CHANNELS 6 Xposition Yposition Zposition Zrotation Xrotation Yrotation 
						JOINT LowerArm_R
						{
							OFFSET -24.3289 0.000322201 0.0
							CHANNELS 6 Xposition Yposition Zposition Zrotation Xrotation Yrotation 
							JOINT Hand_R
							{
								OFFSET -22.2915 -0.000108084 0.0
								CHANNELS 6 Xposition Yposition Zposition Zrotation Xrotation Yrotation 
								End Site
								{
									OFFSET 0.0 0.0 0.0
								}
							}
						}
					}
				}
			}
		}
		JOINT UpperLeg_L
		{
			OFFSET -2.19248 -6.46944 0.0
			CHANNELS 6 Xposition Yposition Zposition Zrotation Xrotation Yrotation 
			JOINT LowerLeg_L
			{
				OFFSET 39.0811 0.0 -1.23785e-05
				CHANNELS 6 Xposition Yposition Zposition Zrotation Xrotation Yrotation 
				JOINT Foot_L
				{
					OFFSET 40.9854 0.0 -1.26872e-05
					CHANNELS 6 Xposition Yposition Zposition Zrotation Xrotation Yrotation 
					JOINT Toes_L
					{
						OFFSET 11.7543 0.0 0.0
						CHANNELS 6 Xposition Yposition Zposition Zrotation Xrotation Yrotation 
						End Site
						{
							OFFSET 0.0 0.0 0.0
						}
					}
				}
			}
		}
		JOINT UpperLeg_R
		{
			OFFSET -2.19251 6.46944 0.0
			CHANNELS 6 Xposition Yposition Zposition Zrotation Xrotation Yrotation 
			JOINT LowerLeg_R
			{
				OFFSET -39.0811 -0.00228153 -0.0401928
				CHANNELS 6 Xposition Yposition Zposition Zrotation Xrotation Yrotation 
				JOINT Foot_R
				{
					OFFSET -40.9854 0.0 0.0
					CHANNELS 6 Xposition Yposition Zposition Zrotation Xrotation Yrotation 
					JOINT Toes_R
					{
						OFFSET -11.7543 0.0 0.0
						CHANNELS 6 Xposition Yposition Zposition Zrotation Xrotation Yrotation 
						End Site
						{
							OFFSET 0.0 0.0 0.0
						}
					}
				}
			}
		}
	}
}
MOTION
Frames:	5
Frame Time:	0.0333333
0.000000 0.000000 0.000000 0.000000 0.000000 -0.000000 -0.642677 87.367600 -46.908200 90.600700 5.862550 -8.675930 15.735700 0.000005 -0.000001 62.750800 80.702400 -60.562900 8.984550 -0.406207 -0.000000 9.004550 -8.446870 5.044440 16.377300 -0.000001 -0.000001 0.311758 -1.221800 -1.644560 6.456720 -0.000001 -0.000000 -7.995360 2.124790 1.330570 12.994200 -0.242716 4.980390 -89.920600 -0.237108 -71.467000 5.348090 -0.000007 -0.000001 -58.031000 32.468900 -15.482600 24.328600 0.000019 0.000005 17.625600 8.226820 -65.763700 22.291600 -0.000001 0.000005 4.350420 5.466720 -5.251390 12.994500 -0.242716 -4.980390 86.744600 10.012200 -71.880600 -5.348130 -0.000001 -0.000004 -59.603000 18.798900 14.146700 -24.328900 0.000322 -0.000009 -7.131390 -3.990840 -60.906500 -22.291500 -0.000108 -0.000004 14.122300 5.627780 -13.163500 -2.192480 -6.469440 -0.000000 -173.903000 -4.595720 -1.583560 39.081100 -0.000007 -0.000012 0.685681 0.097204 98.067400 40.985400 -0.000006 -0.000013 -0.556591 -8.034660 -18.654600 11.754300 -0.000000 0.000003 -0.003956 -0.050989 -18.650900 -2.192510 6.469440 -0.000001 -170.190000 19.486900 136.112000 -39.081100 -0.002282 -0.040193 0.452487 -0.529982 40.285400 -40.985400 0.000008 0.000006 7.757000 2.382760 -64.058000 -11.754300 -0.000006 -0.000006 -0.028116 -0.208697 -25.118500
0.000000 0.000000 0.000000 0.000000 0.000000 -0.000000 -0.949180 84.110300 -36.471500 87.851300 1.183840 -8.234470 15.735700 0.000005 -0.000001 74.675300 80.942900 -71.621200 8.984550 -0.406207 -0.000000 9.862210 -4.702410 6.512690 16.377300 -0.000001 -0.000001 -1.921540 0.064103 -1.413160 6.456720 -0.000001 -0.000000 -8.096820 3.160340 -1.306260 12.994200 -0.242716 4.980390 -90.870200 2.593370 -71.444000 5.348090 -0.000007 -0.000001 -57.669800 34.252300 -8.383560 24.328600 0.000019 0.000005 17.793600 17.896300 -46.262500 22.291600 -0.000001 0.000005 2.467990 5.505540 -6.761260 12.994500 -0.242716 -4.980390 86.522300 12.586400 -74.416700 -5.348130 -0.000001 -0.000004 -51.313500 16.617100 -2.360620 -24.328900 0.000322 -0.000009 -8.150080 -3.946410 -64.329000 -22.291500 -0.000108 -0.000004 18.793800 5.636540 -13.811400 -2.192480 -6.469440 -0.000000 -173.550000 -8.992180 -16.494400 39.081100 -0.000007 -0.000012 0.675126 0.395212 120.342000 40.985400 -0.000006 -0.000013 0.428583 -4.711320 -11.908200 11.754300 -0.000000 0.000003 -0.004109 -0.052579 -18.715600 -2.192510 6.469440 -0.000001 -171.601000 9.772250 136.802000 -39.081100 -0.002282 -0.040193 -0.629724 0.445371 54.869600 -40.985400 0.000008 0.000006 5.314270 -2.277470 -71.155300 -11.754300 -0.000006 -0.000006 -0.008914 -0.095333 -20.456100
0.000000 0.000000 0.000000 0.000000 0.000000 -0.000000 -1.298740 81.843100 -25.859600 85.921300 -4.051750 -6.846190 15.735700 0.000005 -0.000001 84.838400 80.364500 -81.729600 8.984550 -0.406207 -0.000000 11.482200 -1.618950 6.378410 16.377300 -0.000001 -0.000001 -3.033640 1.071950 -0.552865 6.456720 -0.000001 -0.000000 -8.149730 3.880850 -2.233490 12.994200 -0.242716 4.980390 -90.732600 2.129730 -71.011400 5.348090 -0.000007 -0.000001 -61.720900 27.911900 2.840740 24.328600 0.000019 0.000005 19.453200 29.858900 -35.360400 22.291600 -0.000001 0.000005 -0.596275 5.529250 -7.780140 12.994500 -0.242716 -4.980390 87.328000 11.823700 -77.170000 -5.348130 -0.000001 -0.000004 -49.023500 12.358800 -21.382500 -24.328900 0.000322 -0.000009 -8.209660 -2.995800 -70.085400 -22.291500 -0.000108 -0.000004 19.228000 5.646720 -14.711900 -2.192480 -6.469440 -0.000000 -175.072000 -11.586000 -34.785100 39.081100 -0.000007 -0.000012 0.167879 0.168869 135.166000 40.985400 -0.000006 -0.000013 0.986250 1.164780 -7.401060 11.754300 -0.000000 0.000003 -0.004036 -0.051821 -18.684700 -2.192510 6.469440 -0.000001 -170.751000 6.866900 143.465000 -39.081100 -0.002282 -0.040193 -0.543503 0.287784 62.237900 -40.985400 0.000008 0.000006 8.939290 -3.288360 -83.005900 -11.754300 -0.000006 -0.000006 -0.005034 -0.061789 -19.087200
0.000000 0.000000 0.000000 0.000000 0.000000 -0.000000 -0.946210 81.388300 -13.963200 87.322200 -7.955120 -6.645510 15.735700 0.000005 -0.000001 94.741600 80.558900 -92.461200 8.984550 -0.406207 -0.000000 11.026400 1.613970 4.403040 16.377300 -0.000001 -0.000001 -2.714040 0.726892 -0.024299 6.456720 -0.000001 -0.000000 -7.246610 2.284870 -2.731900 12.994200 -0.242716 4.980390 -90.434600 1.148890 -69.274900 5.348090 -0.000007 -0.000001 -61.839700 25.673700 12.384800 24.328600 0.000019 0.000005 21.416300 30.542400 -37.665500 22.291600 -0.000001 0.000005 -5.243620 5.562440 -9.309460 12.994500 -0.242716 -4.980390 88.356900 8.429640 -78.928800 -5.348130 -0.000001 -0.000004 -52.015800 7.061760 -34.718100 -24.328900 0.000322 -0.000009 -6.164010 -1.060980 -80.274500 -22.291500 -0.000108 -0.000004 17.974500 5.641560 -14.259600 -2.192480 -6.469440 -0.000000 179.567000 -11.734400 -49.160700 39.081100 -0.000007 -0.000012 -0.284909 -0.311295 137.535000 40.985400 -0.000006 -0.000013 3.712920 0.987379 -12.656400 11.754300 -0.000000 0.000003 -0.004152 -0.053017 -18.733500 -2.192510 6.469440 -0.000001 -174.836000 8.410860 154.082000 -39.081100 -0.002282 -0.040193 0.233971 -0.127947 60.995400 -40.985400 0.000008 0.000006 12.329700 -0.944521 -91.736500 -11.754300 -0.000006 -0.000006 -0.005429 -0.065559 -19.240800
0.000000 0.000000 0.000000 0.000000 0.000000 -0.000000 -0.002328 83.495700 -0.648531 90.671600 -11.098000 -7.596390 15.735700 0.000005 -0.000001 106.785000 81.421400 -106.145000 8.984550 -0.406207 -0.000000 8.656710 4.935290 0.905188 16.377300 -0.000001 -0.000001 -1.662210 0.555032 0.725369 6.456720 -0.000001 -0.000000 -6.090370 0.242567 -1.992570 12.994200 -0.242716 4.980390 -89.704500 -0.692740 -66.914000 5.348090 -0.000007 -0.000001 -61.362300 27.562900 19.775500 24.328600 0.000019 0.000005 15.329000 18.506800 -40.824900 22.291600 -0.000001 0.000005 -3.403700 5.564680 -9.422020 12.994500 -0.242716 -4.980390 88.974600 5.312370 -79.058000 -5.348130 -0.000001 -0.000004 -54.329300 5.437750 -41.194100 -24.328900 0.000322 -0.000009 -8.972470 0.189687 -91.180700 -22.291500 -0.000108 -0.000004 19.374600 5.618000 -12.484000 -2.192480 -6.469440 -0.000000 172.442000 -9.092910 -55.002000 39.081100 -0.000007 -0.000012 -0.372730 -0.289546 127.843000 40.985400 -0.000006 -0.000013 8.799420 -3.959030 -31.304200 11.754300 -0.000000 0.000003 -0.003452 -0.045622 -18.432300 -2.192510 6.469440 -0.000001 176.565000 10.473300 166.367000 -39.081100 -0.002282 -0.040193 0.109038 -0.085237 51.142400 -40.985400 0.000008 0.000006 11.913300 6.476130 -87.147900 -11.754300 -0.000006 -0.000006 -0.050292 -0.241634 -25.812700
